# xmcd
#
# Track frame offsets:
#	150
#	11850
#	28396
#	44124
#	58902
#	74518
#	94407
#	109931
#	126431
#	145454
#	156725
#	174395
#	193519
#
# Disc length: 2727 seconds
#
# Revision: 0
# Processed by: cddbd v1.5.2PL0 Copyright (c) Steve Scherf et al.
# Submitted via: EasyCDDAExtractor 2010.6.0.0
#
DISCID=d80aa50d
DTITLE=Kube - Kuberapinat mixtape
DYEAR=2012
DGENRE=hip-Hop
TTITLE0=Sisääntulo
TTITLE1=Juonii
TTITLE2=Vimosen päälle feat. Kesken, Mäkki, Särre
TTITLE3=Homereis
TTITLE4=Pummi swag
TTITLE5=Luu feat. Dj Kridlokk, Eevil stöö
TTITLE6=Loota, pelti and visiiri
TTITLE7=Flippaa
TTITLE8=Harmitonta huvii
TTITLE9=Kubenrapinat
TTITLE10=Antistara feat. Dada
TTITLE11=Dena swag
TTITLE12=Haluisin vaa
EXTD=
EXTT0=
EXTT1=
EXTT2=
EXTT3=
EXTT4=
EXTT5=
EXTT6=
EXTT7=
EXTT8=
EXTT9=
EXTT10=
EXTT11=
EXTT12=
PLAYORDER=
